<svg width="44" height="44" viewBox="0 0 44 44" fill="none" xmlns="http://www.w3.org/2000/svg">
<path d="M40.0712 18.0912H37.1166C36.7491 16.6618 36.1822 15.3122 35.4555 14.0665L37.5477 11.9743C39.073 10.4491 39.073 7.97355 37.5477 6.44833C36.0224 4.9231 33.5469 4.9231 32.0218 6.44833L29.9297 8.54052C28.6838 7.80586 27.3424 7.24688 25.905 6.87156V3.91693C25.905 1.76085 24.1562 0.00404358 21.9921 0.00404358C19.828 0.00404358 18.0792 1.75286 18.0792 3.91693V6.87156C16.6498 7.23889 15.3003 7.80586 14.0545 8.54052L11.9623 6.44833C10.4371 4.9231 7.9616 4.9231 6.43638 6.44833C4.91115 7.97355 4.91115 10.4491 6.43638 11.9743L8.52857 14.0665C7.79391 15.3122 7.23493 16.6538 6.86759 18.0912H3.91289C1.75681 18.0912 0 19.84 0 22.004C0 24.1601 1.74882 25.9169 3.91289 25.9169H6.86751C7.23485 27.3463 7.80182 28.6959 8.53648 29.9416L6.44428 32.0337C4.91906 33.559 4.91906 36.0345 6.44428 37.5597C7.21089 38.3264 8.20907 38.7016 9.20726 38.7016C10.2054 38.7016 11.2116 38.3183 11.9702 37.5597L14.0624 35.4675C15.3002 36.2022 16.6497 36.7611 18.0871 37.1286V40.0832C18.0871 42.2393 19.8359 43.9961 22 43.9961C24.1641 43.9961 25.9129 42.2472 25.9129 40.0832V37.1286C27.3423 36.7611 28.6919 36.1942 29.9376 35.4675L32.0297 37.5597C32.7963 38.3264 33.7945 38.7016 34.7927 38.7016C35.7908 38.7016 36.7972 38.3183 37.5558 37.5597C39.081 36.0345 39.081 33.559 37.5558 32.0337L35.4635 29.9416C36.1983 28.6958 36.7572 27.3543 37.1325 25.9169H40.0871C42.2432 25.9169 44 24.1681 44 22.004C44 19.84 42.2352 18.0912 40.0712 18.0912ZM16.2265 32.5289C16.0828 32.5769 15.931 32.6008 15.7793 32.6008C15.1564 32.6008 14.5815 32.2015 14.3819 31.5786L12.5931 25.9169L12.5851 25.885L12.0022 24.0403C11.7546 23.2658 12.1858 22.4432 12.9524 22.2037C13.727 21.9561 14.5495 22.3874 14.7891 23.154L14.9169 23.5532L15.6675 25.9169L17.1848 30.6923C17.4323 31.4668 17.0011 32.2893 16.2265 32.5289ZM18.0791 18.3547L15.3082 20.8541L15.2842 20.8781C15.0047 21.1336 14.6534 21.2534 14.302 21.2534C13.9027 21.2534 13.5034 21.0937 13.216 20.7663C12.6969 20.1993 12.7368 19.3449 13.2559 18.7939C13.2799 18.7619 13.9985 18.0912 13.9985 18.0912L18.0871 14.4019L19.0534 13.5314L19.1971 13.3957C19.796 12.8527 20.7223 12.9006 21.2653 13.4995C21.8083 14.0984 21.7604 15.0247 21.1615 15.5677L21.1216 15.5997L18.3746 18.0912L18.0791 18.3547ZM18.7419 25.9169C18.3666 25.5017 18.2388 24.8868 18.4784 24.3438L18.5742 24.1202L21.2094 18.0991L21.6486 17.101C21.7445 16.8774 21.8882 16.7017 22.0639 16.5579C22.4791 16.2226 23.054 16.1108 23.5812 16.3423C24.268 16.6378 24.6033 17.3964 24.3956 18.0991C24.3798 18.155 24.3637 18.2189 24.3398 18.2748L24.172 18.6581L21.1615 25.5177C21.0976 25.6694 21.0018 25.7971 20.898 25.9169C20.8102 26.0128 20.7223 26.0926 20.6185 26.1645C20.3789 26.3162 20.1074 26.3961 19.82 26.3961C19.6203 26.3961 19.4207 26.3561 19.229 26.2763C19.0374 26.1884 18.8697 26.0607 18.7419 25.9169ZM28.6599 28.0251L25.9049 28.9753L24.0682 29.6061L21.1774 30.6043C21.0177 30.6602 20.858 30.6842 20.6983 30.6842C20.2112 30.6842 19.764 30.4366 19.4925 30.0294C19.4206 29.9256 19.3567 29.8218 19.3168 29.702C19.0533 28.9353 19.4605 28.1049 20.2192 27.8334L21.7604 27.2983L22.455 27.0588L25.7851 25.9089L25.8969 25.869L27.6936 25.2461C28.3724 25.0146 29.0991 25.302 29.4423 25.9089C29.4904 25.9888 29.5303 26.0687 29.5541 26.1565C29.8258 26.923 29.4185 27.7615 28.6599 28.0251ZM30.0574 24.2001C29.9614 24.232 29.6661 24.2719 29.6181 24.2719C28.9952 24.2719 28.4203 23.8726 28.2207 23.2497L27.9651 22.4512L27.7495 21.7805L26.5837 18.0912L25.9049 15.951L25.825 15.7035C25.7053 15.3362 25.7452 14.9529 25.9049 14.6255C26.0726 14.2741 26.376 13.9866 26.7833 13.8589C27.5578 13.6193 28.3804 14.0425 28.62 14.8091L29.6581 18.0832L30.0812 19.4327L31.0077 22.3474C31.2552 23.1299 30.824 23.9525 30.0574 24.2001Z" fill="black"/>
</svg>
