<svg width="29" height="29" viewBox="0 0 29 29" fill="none" xmlns="http://www.w3.org/2000/svg">
<g clip-path="url(#clip0)">
<path d="M21.9575 26.2822C21.8006 26.0118 21.4542 25.9197 21.1834 26.0766L21.1616 26.0892C20.8911 26.2461 20.7991 26.5927 20.956 26.8633C21.061 27.0444 21.2511 27.1455 21.4463 27.1455C21.5428 27.1455 21.6406 27.1208 21.7301 27.0689L21.7519 27.0563C22.0224 26.8994 22.1144 26.5528 21.9575 26.2822Z" fill="black"/>
<path d="M27.0573 7.25542C25.1212 3.90201 21.9951 1.50333 18.2549 0.501135C14.5148 -0.501064 10.6082 0.0132897 7.25478 1.94932C3.90143 3.88536 1.5027 7.01146 0.500553 10.7516C-0.501589 14.4918 0.0127074 18.3984 1.94874 21.7518C3.6854 24.7598 6.44561 27.0459 9.72091 28.1888C11.2735 28.7305 12.8943 29.0008 14.5125 29.0008C16.2721 29.0008 18.0285 28.681 19.6886 28.043C19.9806 27.9308 20.1263 27.6031 20.014 27.3111C19.9018 27.0191 19.5741 26.8733 19.2822 26.9857C14.8631 28.6842 10.0791 27.9125 6.50491 25.2296L7.01236 22.5808L7.25687 22.5014C8.18085 22.2012 8.68835 21.2053 8.38827 20.2812L8.20883 19.729C8.16732 19.6013 8.16754 19.4662 8.2094 19.3385C8.3668 18.8586 8.31056 18.3336 8.05505 17.898C7.79955 17.4623 7.3688 17.1569 6.87313 17.06L5.59475 16.8102L3.12817 14.9348C2.98039 14.8224 2.78697 14.7896 2.61036 14.847L1.16625 15.3161C1.13561 14.7995 1.13515 14.2832 1.16427 13.7696C1.22125 13.8227 1.25835 13.8587 1.28117 13.8824C1.30944 13.9295 1.34444 13.9727 1.38545 14.01C1.50338 14.1174 1.6102 14.1661 1.8345 14.1661C2.04061 14.1661 2.34574 14.125 2.84955 14.0506C3.32737 13.98 3.8027 13.9004 3.8074 13.8996C3.99789 13.8677 4.15892 13.7408 4.2347 13.5633C4.31049 13.3856 4.29049 13.1817 4.18168 13.0221L3.48721 12.0034L4.48194 11.2921C4.54821 11.2447 4.60349 11.1836 4.64399 11.1129L6.18591 8.42108L6.80743 7.7551C7.44254 7.07439 7.62379 6.07848 7.26911 5.21777C7.05988 4.7101 6.69443 4.28745 6.23734 4.0026C6.73238 3.61342 7.26022 3.2541 7.82119 2.93028C9.87939 1.74196 12.1255 1.1661 14.3481 1.14406L13.3367 2.41276L9.58622 3.72755C9.43391 3.78091 9.31157 3.8968 9.25006 4.04599L8.20266 6.58507C8.12829 6.76547 8.15191 6.97131 8.26525 7.13013L9.795 9.27295C9.57591 9.47284 9.36266 9.76397 9.10795 10.1255C8.99625 10.284 8.89079 10.4337 8.81789 10.5176C8.75451 10.5907 8.69107 10.6621 8.6282 10.7328C8.29918 11.1029 7.95899 11.4857 7.71731 11.9971C7.1859 13.1219 7.29324 14.4293 7.99739 15.4091C8.67827 16.3564 9.80077 16.8379 10.9988 16.697C11.194 16.6741 11.376 16.6291 11.5521 16.5855C12.0377 16.4653 12.1915 16.4533 12.3473 16.5991C12.4231 16.6701 12.43 16.6835 12.4285 16.9242C12.4274 17.0773 12.4262 17.2679 12.479 17.4854C12.5636 17.8335 12.7822 18.0741 12.9578 18.2673C13.045 18.3633 13.1353 18.4627 13.1631 18.5293C13.3398 18.9527 13.2629 19.1871 13.0943 19.7008C13.0799 19.7448 13.0651 19.7896 13.0504 19.8356C12.7943 20.6283 13.1512 21.4146 13.4662 22.1082C13.5685 22.3335 13.665 22.5461 13.7283 22.734C14.2375 24.2452 14.6193 24.5912 14.9257 24.7306C15.0861 24.8035 15.2522 24.8355 15.42 24.8355C16.2365 24.8354 17.0884 24.0773 17.4798 23.5967C17.7256 23.295 17.7862 22.9928 17.8304 22.7721C17.8524 22.6623 17.8697 22.5756 17.9028 22.519C17.9535 22.4323 18.0131 22.3651 18.0886 22.2801C18.2405 22.1091 18.4295 21.8963 18.5519 21.5107C18.6449 21.2177 18.7124 21.1459 18.9362 20.9076C18.9752 20.8662 19.0167 20.8219 19.0613 20.7734C19.8157 19.9525 19.6214 19.3254 19.4156 18.6615C19.2425 18.1028 19.5453 17.7455 20.2776 17.0636C20.595 16.768 20.9232 16.4624 21.1769 16.0951C21.2879 15.9344 21.6256 15.4454 21.4166 14.9607C21.2118 14.4855 20.6911 14.4057 20.2727 14.3416C20.1075 14.3162 19.8578 14.2779 19.7784 14.2259C19.4279 13.9968 19.2135 13.5187 19.0062 13.0562C18.9649 12.9642 18.9242 12.8733 18.8829 12.7851C18.8092 12.6278 18.7357 12.4374 18.6578 12.2359C18.4517 11.7026 18.2182 11.098 17.8206 10.6766C17.4633 10.298 16.7897 10.1156 16.1953 9.95462C15.9954 9.90053 15.8068 9.84944 15.6823 9.80351C15.5781 9.76499 15.4649 9.75802 15.3569 9.7834C15.0677 9.8512 14.8872 9.92591 14.7532 10.0333C14.7178 10.0617 14.613 10.1548 14.5516 10.3046C14.3442 10.2051 14.0591 10.0151 13.8836 9.8981C13.88 9.89566 13.8763 9.89322 13.8727 9.89079C13.9318 9.65414 13.8783 9.46423 13.8222 9.34562C13.5058 8.67636 12.4555 8.72875 12.2483 8.74637C12.1306 8.75622 11.9817 8.76149 11.8242 8.76704C11.5768 8.77582 11.3033 8.78567 11.0328 8.81603L11.0467 8.77718C11.2521 8.20494 11.7985 7.82046 12.4065 7.82046H12.7285C13.0412 7.82046 13.2949 7.56683 13.2949 7.25411C13.2949 6.9414 13.0412 6.68776 12.7285 6.68776H12.4065C11.5039 6.68776 10.6773 7.16281 10.2141 7.91052L9.36929 6.72713L10.2004 4.71248L13.8653 3.42764C13.9657 3.39241 14.0543 3.32954 14.1208 3.24622L15.7499 1.20269C19.9127 1.59866 23.8311 3.93259 26.0764 7.82165C26.6745 8.85755 27.1169 9.94811 27.411 11.0635L27.1709 11.2776C26.8575 11.5573 26.6739 11.9583 26.6669 12.3781C26.6668 12.3827 26.6667 12.3872 26.6665 12.3918L26.2754 11.316C26.2171 11.1555 26.1312 11.0083 26.0203 10.8785L25.3226 10.0616C25.0521 9.74494 24.6582 9.56341 24.2418 9.56341H23.3877C23.0845 9.56341 22.8074 9.72948 22.6644 9.99665C22.5214 10.2639 22.537 10.5866 22.7052 10.8388L22.7916 10.9685C22.2397 11.4431 21.6014 11.8229 20.9217 12.079L19.7509 9.83647V9.33616C19.7509 9.18142 19.6876 9.03331 19.5756 8.92654L18.5214 7.92009C18.4632 7.86458 18.3939 7.8221 18.3181 7.79543L17.369 7.46193C17.0738 7.35805 16.7506 7.51341 16.6469 7.80845C16.5432 8.10361 16.6984 8.42686 16.9935 8.53057L17.8274 8.82368L18.6182 9.57853V9.97547C18.6182 10.0667 18.6403 10.1567 18.6826 10.2376L20.1483 13.0451C20.2801 13.2977 20.5793 13.4132 20.8463 13.3144L21.2731 13.157C22.2645 12.7914 23.1835 12.2031 23.9307 11.4561C24.1216 11.2651 24.1513 10.9661 24.0015 10.7414L23.9714 10.6962H24.2418C24.3264 10.6962 24.4064 10.733 24.4614 10.7974L25.1591 11.6143C25.1816 11.6406 25.199 11.6704 25.2109 11.7031L25.9809 13.8205C26.0471 14.0024 26.2016 14.1379 26.3904 14.1798C26.4312 14.1888 26.4723 14.1933 26.5131 14.1933C26.6617 14.1933 26.8063 14.1348 26.9136 14.0274L27.2801 13.6608C27.5122 13.4287 27.672 13.1349 27.7483 12.8093C28.3152 17.3522 26.5339 22.0515 22.7688 25.0067C22.5227 25.1998 22.4797 25.5558 22.6729 25.8019C22.866 26.048 23.2219 26.0909 23.4681 25.8977C26.1864 23.7642 28.0538 20.7127 28.7265 17.3053C29.4053 13.865 28.8126 10.2958 27.0573 7.25542ZM2.67844 16.0158L5.01391 17.7916C5.08295 17.8441 5.16304 17.88 5.24811 17.8966L6.65575 18.1716C6.83541 18.2068 6.98528 18.313 7.07789 18.4709C7.1705 18.6288 7.18998 18.8115 7.133 18.9854C7.01576 19.343 7.01519 19.7212 7.13147 20.079L7.31091 20.6311C7.41813 20.9611 7.23677 21.3168 6.90684 21.4241L6.344 21.607C6.14762 21.6707 6.0016 21.8364 5.96281 22.039L5.50979 24.4037C4.51388 23.4922 3.63946 22.4149 2.9297 21.1855C2.06378 19.6858 1.52275 18.0862 1.28429 16.4688L2.67844 16.0158ZM5.97929 6.98229L5.31302 7.69614C5.28329 7.72802 5.25729 7.76326 5.2356 7.80109L3.72261 10.4426L2.37791 11.4041C2.12744 11.5832 2.06593 11.9295 2.23936 12.1839L2.74228 12.9216C2.45239 12.9647 2.19224 13.0003 2.01926 13.0192C1.98601 12.9873 1.95123 12.9549 1.91527 12.9215C1.78063 12.7965 1.59355 12.6294 1.31465 12.3854C1.77463 9.53843 3.14646 6.85638 5.30402 4.80911C5.71716 4.93921 6.05621 5.24739 6.22182 5.64937C6.40817 6.10148 6.3129 6.62472 5.97929 6.98229ZM10.5972 10.0773C10.8498 9.93514 11.4362 9.91435 11.8643 9.89917C12.0358 9.89311 12.1979 9.88733 12.3427 9.87521C12.4191 9.86881 12.5039 9.87 12.584 9.87623C12.5482 9.96799 12.5366 10.0687 12.5522 10.1686C12.5794 10.3444 12.6877 10.497 12.8445 10.5809C12.9508 10.6378 13.0987 10.7364 13.2552 10.8408C13.6979 11.1359 14.1997 11.4703 14.671 11.5003C15.0997 11.5282 15.3382 11.2839 15.4404 11.1798C15.4485 11.1715 15.4562 11.1633 15.4644 11.1557C15.5219 11.1088 15.5759 11.046 15.616 10.9701C15.7065 10.996 15.8017 11.0218 15.8992 11.0482C16.2346 11.139 16.8588 11.3081 16.9967 11.4542C17.2417 11.7139 17.4326 12.2082 17.6012 12.6443C17.6863 12.8646 17.7667 13.0726 17.8569 13.2655C17.8957 13.3482 17.9338 13.4335 17.9725 13.5198C18.2339 14.1028 18.5301 14.7635 19.1585 15.1743C19.4435 15.3606 19.7928 15.4141 20.101 15.4614C20.1383 15.4671 20.181 15.4737 20.2244 15.4808C20.0415 15.736 19.781 15.9786 19.5058 16.2349C18.8046 16.8878 17.932 17.7005 18.3339 18.997C18.5235 19.6091 18.5324 19.6753 18.2274 20.0071C18.1858 20.0523 18.1471 20.0936 18.1108 20.1322C17.8495 20.4103 17.6432 20.63 17.4724 21.168C17.4227 21.3243 17.3584 21.3967 17.2417 21.5281C17.1484 21.6332 17.0321 21.7642 16.9249 21.9477C16.7964 22.1676 16.7539 22.3793 16.7199 22.5494C16.6863 22.7168 16.6673 22.8008 16.6016 22.8814C16.452 23.0651 16.173 23.3317 15.8865 23.5137C15.6203 23.6827 15.4649 23.7058 15.4119 23.7027C15.3515 23.6379 15.1326 23.3541 14.8018 22.3724C14.7202 22.1302 14.6071 21.881 14.4976 21.64C14.2564 21.1087 14.007 20.5593 14.1283 20.1838C14.1427 20.1395 14.1568 20.0962 14.1708 20.0539C14.3646 19.4632 14.5475 18.9053 14.2086 18.0931C14.1054 17.8457 13.9411 17.665 13.7963 17.5055C13.7025 17.4024 13.5963 17.2854 13.58 17.2182C13.56 17.1361 13.5606 17.0413 13.5614 16.9316C13.5633 16.6357 13.5662 16.1885 13.1217 15.7722C12.4949 15.1855 11.764 15.3662 11.2803 15.4859C11.1317 15.5226 10.9914 15.5573 10.867 15.572C10.0713 15.6652 9.3609 15.365 8.91741 14.7478C8.45346 14.1023 8.38612 13.2336 8.74171 12.4809C8.91384 12.1166 9.17388 11.8239 9.47498 11.4852C9.54074 11.4112 9.60712 11.3365 9.6735 11.2601C9.78395 11.1327 9.9055 10.9603 10.034 10.7778C10.1875 10.56 10.4732 10.1545 10.5972 10.0773Z" fill="black"/>
<path d="M23.2239 19.5001L22.9514 18.473C22.8919 18.2487 22.7016 18.0834 22.4712 18.0559C22.2406 18.0289 22.0169 18.1443 21.9061 18.3482C21.8441 18.4626 21.7882 18.5838 21.7341 18.701C21.6432 18.8982 21.5492 19.1021 21.4514 19.2147C21.3964 19.2779 21.2553 19.346 21.1189 19.4118C20.7928 19.5692 20.3462 19.7847 20.1756 20.3285C20.0697 20.6659 20.1092 20.9328 20.1381 21.1276C20.1631 21.2966 20.1689 21.3552 20.1236 21.4614L20.1179 21.4746C19.9377 21.8977 19.6022 22.6853 20.0726 23.3548C20.4082 23.8326 20.761 23.9555 21.0352 23.9555C21.0888 23.9556 21.1394 23.9509 21.1862 23.9433C21.764 23.8489 22.1983 23.2479 22.5532 22.0519L23.2194 19.8066C23.249 19.7067 23.2506 19.6007 23.2239 19.5001ZM21.4674 21.7297C21.2864 22.3395 21.1264 22.6241 21.034 22.7503C21.0233 22.7367 21.0118 22.7213 20.9994 22.7037C20.8912 22.5495 21.053 22.1698 21.16 21.9185L21.1657 21.9053C21.3384 21.5 21.2922 21.1889 21.2586 20.9616C21.2371 20.8161 21.2294 20.7536 21.2564 20.6677C21.2786 20.597 21.4113 20.5285 21.6112 20.432C21.6999 20.3892 21.7975 20.3421 21.896 20.2851L21.4674 21.7297Z" fill="black"/>
<path d="M15.2947 6.7323L15.2564 6.71894C14.9615 6.61562 14.6381 6.77076 14.5346 7.06592C14.431 7.36113 14.5864 7.68426 14.8815 7.7878L14.9197 7.80117C14.9817 7.82292 15.0449 7.83323 15.1072 7.83323C15.341 7.83323 15.5599 7.68727 15.6417 7.45419C15.7452 7.15898 15.5898 6.83579 15.2947 6.7323Z" fill="black"/>
</g>
<defs>
<clipPath id="clip0">
<rect width="29" height="29" fill="white"/>
</clipPath>
</defs>
</svg>
